<svg width="51" height="51" viewBox="0 0 51 51" fill="none" xmlns="http://www.w3.org/2000/svg">
<path d="M50.6235 25.8027C50.6235 39.6099 39.4307 50.8027 25.6235 50.8027C11.8164 50.8027 0.623535 39.6099 0.623535 25.8027C0.623535 11.9956 11.8164 0.802734 25.6235 0.802734C39.4307 0.802734 50.6235 11.9956 50.6235 25.8027Z" fill="url(#paint0_linear_70802_6)"/>
<path d="M27.0206 34.7999V26.6039H29.7856L30.1966 23.3949H27.0206V21.3509C27.0206 20.4249 27.2786 19.7909 28.6076 19.7909H30.2916V16.9299C29.4722 16.8421 28.6486 16.7997 27.8246 16.8029C25.3806 16.8029 23.7026 18.2949 23.7026 21.0339V23.3889H20.9556V26.5979H23.7086V34.7999H27.0206Z" fill="white"/>
<defs>
<linearGradient id="paint0_linear_70802_6" x1="5.73403" y1="0.802729" x2="48.8622" y2="4.01739" gradientUnits="userSpaceOnUse">
<stop stop-color="#C89AFC"/>
<stop offset="1" stop-color="#7C6AFA"/>
</linearGradient>
</defs>
</svg>
