<svg width="59" height="59" viewBox="0 0 59 59" fill="none" xmlns="http://www.w3.org/2000/svg">
<g filter="url(#filter0_d_70802_7)">
<circle cx="29.6235" cy="25.8027" r="25" fill="url(#paint0_linear_70802_7)"/>
<path d="M39.6811 20.7476C39.5616 20.3037 39.3276 19.8989 39.0025 19.5738C38.6774 19.2487 38.2726 19.0146 37.8286 18.8951C36.1936 18.4526 29.6236 18.4526 29.6236 18.4526C29.6236 18.4526 23.0536 18.4526 21.4186 18.8951C20.9746 19.0146 20.5698 19.2487 20.2447 19.5738C19.9196 19.8989 19.6856 20.3037 19.5661 20.7476C19.2608 22.4151 19.1127 24.1075 19.1236 25.8026C19.1127 27.4978 19.2608 29.1902 19.5661 30.8576C19.6856 31.3016 19.9196 31.7064 20.2447 32.0315C20.5698 32.3566 20.9746 32.5906 21.4186 32.7101C23.0536 33.1526 29.6236 33.1526 29.6236 33.1526C29.6236 33.1526 36.1936 33.1526 37.8286 32.7101C38.2726 32.5906 38.6774 32.3566 39.0025 32.0315C39.3276 31.7064 39.5616 31.3016 39.6811 30.8576C39.9864 29.1902 40.1346 27.4978 40.1236 25.8026C40.1346 24.1075 39.9864 22.4151 39.6811 20.7476ZM27.5236 28.9526V22.6526L32.9761 25.8026L27.5236 28.9526Z" fill="white"/>
</g>
<defs>
<filter id="filter0_d_70802_7" x="0.623535" y="0.802734" width="58" height="58" filterUnits="userSpaceOnUse" color-interpolation-filters="sRGB">
<feFlood flood-opacity="0" result="BackgroundImageFix"/>
<feColorMatrix in="SourceAlpha" type="matrix" values="0 0 0 0 0 0 0 0 0 0 0 0 0 0 0 0 0 0 127 0" result="hardAlpha"/>
<feOffset dy="4"/>
<feGaussianBlur stdDeviation="2"/>
<feComposite in2="hardAlpha" operator="out"/>
<feColorMatrix type="matrix" values="0 0 0 0 0 0 0 0 0 0 0 0 0 0 0 0 0 0 0.25 0"/>
<feBlend mode="normal" in2="BackgroundImageFix" result="effect1_dropShadow_70802_7"/>
<feBlend mode="normal" in="SourceGraphic" in2="effect1_dropShadow_70802_7" result="shape"/>
</filter>
<linearGradient id="paint0_linear_70802_7" x1="9.73403" y1="0.802729" x2="52.8622" y2="4.01739" gradientUnits="userSpaceOnUse">
<stop stop-color="#C89AFC"/>
<stop offset="1" stop-color="#7C6AFA"/>
</linearGradient>
</defs>
</svg>
